HIERARCHY
ROOT Hips
{
	OFFSET -14.64140 90.27770 -84.91600
	CHANNELS 6 Xposition Yposition Zposition Zrotation Xrotation Yrotation
	JOINT Spine
	{
		OFFSET 0.00000 13.20850 -1.60436
		CHANNELS 3 Zrotation Xrotation Yrotation
		JOINT Spine1
		{
			OFFSET 0.00000 8.61716 0.00000
			CHANNELS 3 Zrotation Xrotation Yrotation
			JOINT Spine2
			{
				OFFSET 0.00000 8.61717 0.00000
				CHANNELS 3 Zrotation Xrotation Yrotation
				JOINT Spine3
				{
					OFFSET 0.00000 8.61717 0.00000
					CHANNELS 3 Zrotation Xrotation Yrotation
					JOINT Neck
					{
						OFFSET 0.00000 11.07920 1.10792
						CHANNELS 3 Zrotation Xrotation Yrotation
						JOINT Neck1
						{
							OFFSET 0.00000 7.08032 0.00000
							CHANNELS 3 Zrotation Xrotation Yrotation
							JOINT Head
							{
								OFFSET 0.00000 7.08031 0.00000
								CHANNELS 3 Zrotation Xrotation Yrotation
								End site
								{
									OFFSET 0.00000 0.00000 0.00000
								}
							}
						}
					}
					JOINT RightShoulder
					{
						OFFSET -0.01000 7.91373 5.19711
						CHANNELS 3 Zrotation Xrotation Yrotation
						JOINT RightArm
						{
							OFFSET -18.41580 0.00000 0.00000
							CHANNELS 3 Zrotation Xrotation Yrotation
							JOINT RightForeArm
							{
								OFFSET -29.11090 0.00000 0.00000
								CHANNELS 3 Zrotation Xrotation Yrotation
								JOINT RightHand
								{
									OFFSET -24.65040 0.00000 0.00000
									CHANNELS 3 Zrotation Xrotation Yrotation
									JOINT RightHandThumb1
									{
										OFFSET -5.35114 -0.85590 3.97906
										CHANNELS 3 Zrotation Xrotation Yrotation
										JOINT RightHandThumb2
										{
											OFFSET -4.52789 0.00000 0.00000
											CHANNELS 3 Zrotation Xrotation Yrotation
											JOINT RightHandThumb3
											{
												OFFSET -2.46976 0.00000 0.00000
												CHANNELS 3 Zrotation Xrotation Yrotation
												End site
												{
													OFFSET 0.00000 0.00000 0.00000
												}
											}
										}
									}
									JOINT RightHandIndex1
									{
										OFFSET -14.26970 0.00000 2.88139
										CHANNELS 3 Zrotation Xrotation Yrotation
										JOINT RightHandIndex2
										{
											OFFSET -5.48836 0.00000 0.00000
											CHANNELS 3 Zrotation Xrotation Yrotation
											JOINT RightHandIndex3
											{
												OFFSET -3.01859 0.00000 0.00000
												CHANNELS 3 Zrotation Xrotation Yrotation
												End site
												{
													OFFSET 0.00000 0.00000 0.00000
												}
											}
										}
									}
									JOINT RightHandMiddle1
									{
										OFFSET -14.26970 0.00000 -0.09147
										CHANNELS 3 Zrotation Xrotation Yrotation
										JOINT RightHandMiddle2
										{
											OFFSET -6.17441 0.00000 0.00000
											CHANNELS 3 Zrotation Xrotation Yrotation
											JOINT RightHandMiddle3
											{
												OFFSET -3.56743 0.00000 0.00000
												CHANNELS 3 Zrotation Xrotation Yrotation
												End site
												{
													OFFSET 0.00000 0.00000 0.00000
												}
											}
										}
									}
									JOINT RightHandRing1
									{
										OFFSET -12.69180 0.00000 -3.06433
										CHANNELS 3 Zrotation Xrotation Yrotation
										JOINT RightHandRing2
										{
											OFFSET -5.62556 0.00000 0.00000
											CHANNELS 3 Zrotation Xrotation Yrotation
											JOINT RightHandRing3
											{
												OFFSET -3.56744 0.00000 0.00000
												CHANNELS 3 Zrotation Xrotation Yrotation
												End site
												{
													OFFSET 0.00000 0.00000 0.00000
												}
											}
										}
									}
									JOINT RightHandPinky1
									{
										OFFSET -11.11390 0.00000 -6.03719
										CHANNELS 3 Zrotation Xrotation Yrotation
										JOINT RightHandPinky2
										{
											OFFSET -4.52789 0.00000 0.00000
											CHANNELS 3 Zrotation Xrotation Yrotation
											JOINT RightHandPinky3
											{
												OFFSET -2.46976 0.00000 0.00000
												CHANNELS 3 Zrotation Xrotation Yrotation
												End site
												{
													OFFSET 0.00000 0.00000 0.00000
												}
											}
										}
									}
								}
							}
						}
					}
					JOINT LeftShoulder
					{
						OFFSET 0.01000 7.91373 5.19711
						CHANNELS 3 Zrotation Xrotation Yrotation
						JOINT LeftArm
						{
							OFFSET 18.41580 0.00000 0.00000
							CHANNELS 3 Zrotation Xrotation Yrotation
							JOINT LeftForeArm
							{
								OFFSET 29.11090 0.00000 0.00000
								CHANNELS 3 Zrotation Xrotation Yrotation
								JOINT LeftHand
								{
									OFFSET 24.65040 0.00000 0.00000
									CHANNELS 3 Zrotation Xrotation Yrotation
									JOINT LeftHandThumb1
									{
										OFFSET 5.35114 -0.85590 3.97906
										CHANNELS 3 Zrotation Xrotation Yrotation
										JOINT LeftHandThumb2
										{
											OFFSET 4.52789 0.00000 0.00000
											CHANNELS 3 Zrotation Xrotation Yrotation
											JOINT LeftHandThumb3
											{
												OFFSET 2.46977 0.00000 0.00000
												CHANNELS 3 Zrotation Xrotation Yrotation
												End site
												{
													OFFSET 0.00000 0.00000 0.00000
												}
											}
										}
									}
									JOINT LeftHandIndex1
									{
										OFFSET 14.26970 0.00000 2.88139
										CHANNELS 3 Zrotation Xrotation Yrotation
										JOINT LeftHandIndex2
										{
											OFFSET 5.48836 0.00000 0.00000
											CHANNELS 3 Zrotation Xrotation Yrotation
											JOINT LeftHandIndex3
											{
												OFFSET 3.01859 0.00000 0.00000
												CHANNELS 3 Zrotation Xrotation Yrotation
												End site
												{
													OFFSET 0.00000 0.00000 0.00000
												}
											}
										}
									}
									JOINT LeftHandMiddle1
									{
										OFFSET 14.26970 0.00000 -0.09147
										CHANNELS 3 Zrotation Xrotation Yrotation
										JOINT LeftHandMiddle2
										{
											OFFSET 6.17440 0.00000 0.00000
											CHANNELS 3 Zrotation Xrotation Yrotation
											JOINT LeftHandMiddle3
											{
												OFFSET 3.56744 0.00000 0.00000
												CHANNELS 3 Zrotation Xrotation Yrotation
												End site
												{
													OFFSET 0.00000 0.00000 0.00000
												}
											}
										}
									}
									JOINT LeftHandRing1
									{
										OFFSET 12.69180 0.00000 -3.06433
										CHANNELS 3 Zrotation Xrotation Yrotation
										JOINT LeftHandRing2
										{
											OFFSET 5.62556 0.00000 0.00000
											CHANNELS 3 Zrotation Xrotation Yrotation
											JOINT LeftHandRing3
											{
												OFFSET 3.56744 0.00000 0.00000
												CHANNELS 3 Zrotation Xrotation Yrotation
												End site
												{
													OFFSET 0.00000 0.00000 0.00000
												}
											}
										}
									}
									JOINT LeftHandPinky1
									{
										OFFSET 11.11390 0.00000 -6.03719
										CHANNELS 3 Zrotation Xrotation Yrotation
										JOINT LeftHandPinky2
										{
											OFFSET 4.52789 0.00000 0.00000
											CHANNELS 3 Zrotation Xrotation Yrotation
											JOINT LeftHandPinky3
											{
												OFFSET 2.46976 0.00000 0.00000
												CHANNELS 3 Zrotation Xrotation Yrotation
												End site
												{
													OFFSET 0.00000 0.00000 0.00000
												}
											}
										}
									}
								}
							}
						}
					}
					JOINT pCube4
					{
						OFFSET 0.00000 10.91090 1.10792
						CHANNELS 3 Zrotation Xrotation Yrotation
						End site
						{
							OFFSET 0.00000 0.00000 0.00000
						}
					}
				}
			}
		}
	}
	JOINT RightUpLeg
	{
		OFFSET -9.98441 0.00000 0.00000
		CHANNELS 3 Zrotation Xrotation Yrotation
		JOINT RightLeg
		{
			OFFSET 0.00000 -42.11790 0.00000
			CHANNELS 3 Zrotation Xrotation Yrotation
			JOINT RightFoot
			{
				OFFSET 0.00000 -45.00020 -0.00001
				CHANNELS 3 Zrotation Xrotation Yrotation
				JOINT RightForeFoot
				{
					OFFSET 0.00000 -3.74820 0.00000
					CHANNELS 3 Zrotation Xrotation Yrotation
					JOINT RightToeBase
					{
						OFFSET 0.00000 0.06325 14.43120
						CHANNELS 3 Zrotation Xrotation Yrotation
						End site
						{
							OFFSET 0.00000 0.00000 0.00000
						}
					}
				}
			}
		}
	}
	JOINT LeftUpLeg
	{
		OFFSET 9.98441 0.00000 0.00000
		CHANNELS 3 Zrotation Xrotation Yrotation
		JOINT LeftLeg
		{
			OFFSET 0.00000 -42.11800 0.00000
			CHANNELS 3 Zrotation Xrotation Yrotation
			JOINT LeftFoot
			{
				OFFSET 0.00000 -45.00070 0.00000
				CHANNELS 3 Zrotation Xrotation Yrotation
				JOINT LeftForeFoot
				{
					OFFSET 0.00000 -3.74824 0.00000
					CHANNELS 3 Zrotation Xrotation Yrotation
					JOINT LeftToeBase
					{
						OFFSET 0.00000 0.06325 14.43110
						CHANNELS 3 Zrotation Xrotation Yrotation
						End site
						{
							OFFSET 0.00000 0.00000 0.00000
						}
					}
				}
			}
		}
	}
}
MOTION
Frames: 4
Frame Time: 0.050000
0.03669616332830141 -0.044471982024859164 -0.03633855766659621 -0.011809748964934079 -0.024010738850434102 -0.024752853481144744 -3.201953504790582 8.533840878474514 -0.6753673263542995 -0.844077274726883 3.15994257391692 0.40783361734887064 -0.8692516858187364 0.22776393561043395 -1.7113243158418392 -0.10752367186881501 0.6125899341684173 -1.0699655014018286 -0.514821607381931 8.789887979819266 0.29593991906448347 -0.24268267111803235 -1.169538054268272 -2.483561810629533 -0.18635955196524073 -15.646110414401338 -0.1297301614218924 3.095379085118965 0.0077238364916613345 -9.862484625535593 61.03985591231826 2.48723815792888 22.13810580854265 6.430818684640066 4.373260651348728 98.18651059929783 16.19164937531127 -0.4240097563757828 -5.510761716091697 4.569426142154846 -0.15730813784535874 -1.604426577294398 -0.012985169051075376 -0.0313647049628246 -56.27097667848495 -0.01129640036750162 0.026535677111994317 -56.25721461088271 -38.76144476432959 0.028220460511925522 -0.008200817274275293 -0.04516859467544474 0.02312695271214805 0.0261989035145522 -0.02474832279347787 -0.004739916007076545 -0.006731242963285012 -36.6723298685409 0.01693955328141074 0.042877426145534345 0.016254702400472748 0.006611093699000295 -0.01159640453058894 0.04242795981566904 0.007209734044405949 -0.04052275135597316 -19.792559841899703 -0.005173374695530492 0.046295134473778914 -0.017451215942861618 -0.04368561853993728 0.04762103674185913 -0.029819835733367342 -0.022494304823900538 0.014913540074561407 24.093056661910737 0.03508940367274709 0.0066326930670986915 28.844252744811783 -0.026949312211887747 -0.0032412075593179113 28.856062062486085 -0.04602115728373503 0.01656483999349561 -0.22055998942669855 0.4946048938780653 8.813238179045781 -54.90021297282195 20.807118058145416 -32.37523490113938 16.356528238905877 -12.513226692804356 -105.62118330630072 -3.238881043840473 1.7792228108271144 -4.095838927384439 -0.5011452369376252 0.02059369596687606 -8.111820765262102 -0.002354253874107856 -0.009128456881419719 44.55761084018962 -0.011344967283157094 0.03268673943829379 44.5886313609076 12.500307845083272 -0.011382288757816656 0.0047578338813973895 0.022277204453074156 0.0007444339428349441 0.02835892446482539 -0.03729272588770522 -0.006710569980964791 0.016994546630841694 11.081254279616173 0.037494990984481134 0.03537196594198902 0.017688764781052836 -0.02213685542991974 -0.0031105803002498718 -0.04709122486485623 -0.02705781185204942 -0.030663652473672493 4.7780208215218485 -0.04315180790924954 0.012039952504032236 0.02642475524011667 0.005846549003269191 0.011510628157121823 -0.030818088063805107 0.03511809079160885 -0.030033678506728126 -5.567329664939813 0.03322257996950697 0.0027382998192657703 -6.7251531318785 0.02859249826651009 0.03835964774292436 -6.748387714224307 0.007789139945859531 -0.020758949338552657 0.016999235253719294 0.0048102231560352105 -0.022114616350807165 8.038329359581331 3.4551231522320967 -19.229941720482678 0.0066925602500211125 10.351722593145958 0.017492713279536228 -5.5975775426011145 -15.61910739799463 3.171873094171316 0.04033973977832796 0.009826558125745597 0.04358532275418786 -0.03497342438754375 4.703641725350074 -0.006651951251020829 12.499408004680419 -8.254316985615317 6.922707372005807 0.019448629577247002 46.398485818186494 -0.025849743612637487 -4.315482972593226 -14.778809331535083 -3.826011883821287 0.045418293848011236 -0.016236667433347646 0.01232777109269069 -0.0348428407079329 -10.736358482146573 0.02591709664455301 
0.014402062089932895 0.017186183821767034 -0.00867197802704133 0.018543567216216816 -0.018118957816127542 0.043372478111980306 -3.3365106842115337 8.699666425068532 -0.6785168292236294 -0.7852331048206954 3.173385617992801 0.41836738943206986 -0.9107310791580558 0.2875941453683439 -1.7396883684998343 -0.1478728505470327 0.6094821212609243 -1.0993319700912751 -0.5625652556756101 8.781149117328388 0.32804714807100216 -0.3150133463518162 -1.1868717671367277 -2.4411854934345216 -0.22947938113009694 -15.559595882117419 -0.11180272044935202 3.182050994361084 0.01067703308612181 -9.83042524391945 60.27473756400101 1.8152318369291225 22.30656544195502 4.846065101739011 3.83187498748782 98.47832810738453 16.336939944472135 -0.41821304789211355 -5.2630892379255085 4.513464972722448 -0.14232490072142825 -1.5643257889305302 -0.04942319702996437 -0.02801568464133102 -56.240147566750395 -0.04942031581417337 0.03276293908737747 -56.24278583522501 -38.804250506295865 -0.02011556999755848 -0.03519925620570263 0.02549292174104462 0.02342235173719514 -0.0369368449518417 -0.029938852211269133 0.016361359945824588 0.00863562614116152 -36.71747701392218 0.010057586449404961 0.01658628941382595 -0.034885296401929826 -0.034334405774409694 -0.012445942205266809 0.018236481840867236 -0.03088849266693638 -0.007005312911478018 -19.74740711320569 -0.04522748539175342 -0.015121187372228072 0.0342172103218256 -0.012246030848652814 -0.0070451212735693925 0.02695532191167382 -0.00311713294456722 0.0019123180261524273 24.0648718877518 0.03599006953690711 0.035353919081285434 28.84039249368939 -0.016253731101643503 0.004734703962220746 28.911699799106874 0.02650744556618016 0.004809024961366178 -0.29857574102080175 0.4783686787306942 8.799108097542574 -53.784308769880774 20.47018482560611 -32.737386370938395 21.085184822813137 -13.99115241202512 -107.21418478058574 -2.6097044213265037 2.2845718196197695 -4.882964702073077 -0.47693060374417523 0.032344733399725815 -8.158994538103734 -0.015098218594860425 -0.01059061062636643 44.56651765272666 0.025533445153990687 0.015854593072757297 44.53954169367922 12.50298031621486 -0.02916587337307781 0.021855733494579154 0.024326712357953004 0.008775946346286012 -0.04629411496057964 -0.03917528987475973 0.043284083285590066 -0.02163684274953378 11.120146746766434 -0.030795205714256185 0.04827597740570661 0.010300593536973334 0.04398235930241397 -0.006135607219105276 0.03942990445433185 0.02578613930341414 0.04477879102521802 4.743595637930063 0.04070679103322567 0.042133859476331664 0.020917722416300712 -0.029035853828067556 0.037496567635050784 -0.03179626731584787 -0.0020231364799271657 -0.027690064220119236 -5.569119283673597 0.0022869058125511753 -0.0025053751913455156 -6.705069313407392 0.000658938637076848 -0.032660133565227296 -6.70042342338518 -0.029191886845108688 0.03131146314344137 -0.03989036739591829 -0.015572302138982894 0.026373409855288594 8.048120949255566 3.494947661779924 -19.26646378479869 -0.041189911094178674 10.406531262035083 -0.0023583753464160445 -5.616889198437245 -15.70470699899863 3.14358196250045 0.00919114191805667 -0.01807584978505672 0.016134554640040502 0.032697230439856007 4.653895085563094 -0.042662298094784695 12.433224119419062 -8.214844381469238 6.876184913439755 0.0020845989807729485 46.366638962804686 -0.03157523054936577 -4.370638594360164 -14.736122201631902 -3.7921820470996583 -0.005888428947393876 -0.00977278907231092 0.012306751633730129 0.016196249020335424 -10.732762430203376 -0.03197239335594119 
-0.011737684843545391 -0.031819593128933975 0.02455277260645973 -0.0007177831772904722 0.02602853704877846 0.03199646810640667 -3.349803820122517 8.73315735234113 -0.6281414243925112 -0.8156497553061148 3.2074790588188757 0.40116448812834377 -0.9179696212486599 0.19807570982068512 -1.6547535173846721 -0.1787438149331363 0.6016643804210895 -1.0230397511021483 -0.5902082657859333 8.785981308989374 0.33243282353012965 -0.27581108880224375 -1.1426715677307437 -2.432243786649373 -0.21399960375199165 -15.54673434664803 -0.10922909581657411 3.179675106775749 0.006172449053571234 -9.789699191781525 59.65027358181715 1.3682180263163919 22.41192964142363 3.549437007978159 3.415046969432386 98.54456707499043 16.385031324021117 -0.4228264759820424 -4.994187300074502 4.550722150634877 -0.11634477292382536 -1.626944734548081 0.028323296056704705 0.01063309045697554 -56.28341010589237 0.021459642125696614 -0.015910261507646455 -56.22601737931335 -38.7888049459498 -0.031289888994466206 -0.010558211060421242 -0.017432511518392535 0.03937621175939803 0.014162210579234545 0.018031751163893942 -0.030441052604869026 -0.046646398085456016 -36.64640822703884 0.009248515982440832 0.0028315167958822447 0.02828683024093484 0.048541303313467433 -0.02711405371276881 0.004941152339775197 0.028859416526944855 -0.03933626880158085 -19.776662109650726 -0.007623640758783349 -0.034177456792726456 -0.017164299090787278 0.047489737648830146 0.0005035564820072559 0.0283817739855631 -0.000997493384786766 0.004826103257662937 24.00606300546597 0.042047303447263824 0.04259762372527849 28.835847652297332 0.016115256768850353 0.029644844562310466 28.83854422578439 0.0158330562671413 0.003875803060914227 -0.25525169745381343 0.5679362964971186 8.872795306188266 -52.856956517072256 20.08217577623034 -32.959511195107694 24.96786630831104 -15.175314356518658 -108.29653655585422 -2.1053966263470674 2.732092973359654 -5.572386209701844 -0.4617709647085565 0.018013994441670997 -8.098004698163065 0.01046762920358397 -0.03569662096055528 44.60955046129069 0.029836530824953897 0.042196037535663436 44.602254636144934 12.437062162102944 0.020796506068852652 -0.035803633857273 -0.01776289594648808 0.04554281182654624 -0.003683863583602494 -0.046384567990598036 0.0015005088030257156 -0.012389216779096792 11.068474683003533 0.024942095701865872 0.045480005456789055 0.040825216513489734 0.019366318885143223 0.002743992233378463 0.04614074939733767 0.002880723364356239 -0.0251396642973181 4.740029914031523 0.006907688540263547 -0.013063292866195852 0.03095486061300674 -0.04082648473176706 -0.046559922342962745 0.029235651509757467 0.025769255141421154 0.0016965451012938152 -5.594736925655391 -0.02969168646492186 -0.003865820153704608 -6.6981510791055054 -0.02592888837801197 0.024622600256428675 -6.706674932612444 -0.011985911544987475 0.037273718148541 0.0461048317323424 0.0067613713358064915 0.01952097033620882 8.060978283133286 3.4728090484405945 -19.227656045748024 -0.024551692072304974 10.38076664146645 0.020860305072732305 -5.622338239987544 -15.63232989122917 3.237689715422463 0.006045651649394948 -0.023061739774095733 -0.022300471034596092 0.013977505961050051 4.723751480701317 -0.018949843810042572 12.491718235884342 -8.247936991529443 6.874518609274001 -0.024123046996247365 46.36803232058701 -0.02786684070392906 -4.3225755423385355 -14.731015419741862 -3.8323428662538417 0.02458925134065645 0.007619804103432091 0.02211126654945688 -0.037423886983906675 -10.79359660604647 -0.006770317042992414 
-0.0036059734490508123 -0.00907344231130224 -0.007686541302962921 0.006635969881670004 -0.02540270574644309 -0.0317437674373025 -3.4083267735812344 8.842794494074933 -0.6276660975418344 -0.7792301235482773 3.1401082744564053 0.34936504635722465 -0.924056393911646 0.2068978769601814 -1.6331478203340697 -0.18040693252146273 0.6442088119861207 -1.0404931654853664 -0.5691920601717709 8.84502998446636 0.37235607262317866 -0.24281221365022668 -1.07495690879819 -2.4617959526372144 -0.2472671105144814 -15.540115772881984 -0.092207836005662 3.086139672250632 0.03665392436427747 -9.803093539943612 59.4312715844703 1.316347856713649 22.973169263599033 2.7986304318958544 3.044434352525403 98.27129016628709 16.431962656852587 -0.40131874438734133 -4.811429984267912 4.5495837635981635 -0.11694042447158301 -1.6192153567667498 -0.008662846828415328 -0.03594127348610617 -56.21257977257917 -0.018752496698213352 -0.027737627663174214 -56.278826315490555 -38.753299384334795 -0.007451678633543315 0.04624796252639051 -0.028573414196090607 0.03405698758539481 0.008104832495440153 -0.020781911261900373 -0.014660340762356203 0.040044494015654554 -36.68112548365015 -0.01609118773681095 -0.0017826720702728424 0.006997511134510987 -0.008399112102797115 0.048858421206576325 -0.03092482853922304 -0.02514811692225437 0.03713966169108399 -19.80019975084183 0.011473675203178733 0.0043185333059760226 0.019081074035967132 0.014712407934459304 -0.0262108897030217 -0.016722585709828756 -0.04142922256030711 0.008646114049727984 24.037993635908293 0.037983491526310524 0.029229856487043356 28.880897545614346 0.04477283281749726 -0.04519250849145253 28.825638840220652 0.0001574904983518807 -0.0018200724363383277 -0.17315991653351578 0.5075286446596686 8.865581528316529 -52.42104502302413 20.065247988631654 -33.31239016058315 27.043140486802244 -15.731836412503608 -108.41977173910969 -1.9483995096402367 3.0712109596870953 -5.977632474859894 -0.5034275648205386 0.05503426708623392 -8.080985316585757 -0.032694599961378135 0.016462256944488086 44.5662205151388 0.008959050852904764 -0.030611835256463986 44.59164097664344 12.446590747511099 -0.014124241261928816 0.003163582507329773 0.031354606058178774 -0.02194227910292864 -0.0011132588834490453 0.01551293613933548 0.02960878066300736 -0.0060910545802215525 11.123499917232111 0.008428026576186024 -0.030008913054701897 -0.03777394789247772 0.008416192893946803 -0.00046290178055072013 -0.025275946491228215 -0.035703625824831026 0.0013631601574143613 4.734152217935192 -0.028107385409209408 -0.035639672738825526 0.03289815715296649 -0.014044842266834135 -0.005493143046696195 -0.022364835356158932 0.0292278313044325 0.049352482684550184 -5.559895817184402 -0.0478673145888812 -0.028529298534746707 -6.672640817272531 -0.048299215536538036 -0.005143656040395855 -6.736381465043041 -0.010090688562951604 -0.0011689727932871347 -0.046944322454005864 -0.026912216004886507 -0.04790584544599334 7.9956388825299545 3.4868915668454443 -19.213161171913754 0.032483613939260456 10.379642984602961 -0.0352816870677303 -5.654165589217913 -15.635761056888807 3.1830111808489154 -0.01754471544140549 -0.03608319022691775 -0.009576171390393165 0.00662469445082211 4.6679761710988625 -0.01790166545423102 12.479181315928582 -8.254475206722804 6.873239337576554 -0.02653790339665739 46.36350929194507 0.043175406003382405 -4.291318253870471 -14.707858725828235 -3.8393200634736266 -0.04414276814788968 0.03237863118573273 0.00409872557838626 0.015721557202598324 -10.791819186524364 0.01754383148117468 
